Coordinates
version=1
nRows=13
nColumns=34
inDegrees=yes

Units are S.I. units (second, meters, Newtons, ...)
If the header above contains a line with 'inDegrees', this indicates whether rotational values are in degrees (yes) or radians (no).

endheader
time	pelvis_tilt	pelvis_list	pelvis_rotation	pelvis_tx	pelvis_ty	pelvis_tz	hip_flexion_r	hip_adduction_r	hip_rotation_r	knee_angle_r	ankle_angle_r	subtalar_angle_r	mtp_angle_r	hip_flexion_l	hip_adduction_l	hip_rotation_l	knee_angle_l	ankle_angle_l	subtalar_angle_l	mtp_angle_l	lumbar_extension	lumbar_bending	lumbar_rotation	arm_flex_r	arm_add_r	arm_rot_r	elbow_flex_r	pro_sup_r	arm_flex_l	arm_add_l	arm_rot_l	elbow_flex_l	pro_sup_l
      0.00000000	      0.26002613	      0.70215426	    -10.67176928	     -0.03132390	      1.26545069	     -0.09016659	     -4.17064526	     -1.07475881	     -1.36932618	      2.05597305	      7.50843584	      3.44527584	      0.00000000	     -6.46702839	      0.10003518	     -1.87391725	      0.83218828	      6.94532143	      6.86947886	      0.00000000	     -6.16130947	      0.64519261	     -1.29772146	      7.99494992	     -6.33097189	     44.17989838	     17.24912761	     34.80587469	      4.53795501	     -6.89005485	     40.31795556	     19.71975556	     32.43617533
      0.01666670	     -0.43050430	      0.25636345	    -10.18021697	     -0.03120926	      1.26128380	     -0.09096219	     -4.10081835	     -0.13261952	      0.77338836	      1.44047245	      8.99341328	      3.29432285	      0.00000000	     -5.71214700	     -0.37321126	      0.09763563	      0.73554805	      6.45443113	      4.51460002	      0.00000000	     -5.32334429	      1.49888912	     -1.31839394	      6.04659445	     -5.49499742	     24.20962516	     19.03128686	     69.87742545	      3.24891344	     -5.18282533	     20.55251215	     21.04826082	     66.26701270
      0.03333330	     -0.62786295	      0.27367893	     -9.90472038	     -0.03230543	      1.25996113	     -0.09095702	     -4.12933174	      0.09253702	      0.32752434	      0.99096319	      9.90310678	      3.88272632	      0.00000000	     -5.17312404	     -0.35319420	      0.51005122	      1.19635994	      6.65581855	      4.00376588	      0.00000000	     -5.13713238	      1.35325621	     -1.78373851	      6.55468005	     -4.61180202	     23.29117548	     17.42205254	     70.16054804	      3.49373039	     -5.73896879	     21.77336721	     21.18877908	     67.08428641
      0.05000000	     -0.62958100	      0.20313612	     -9.86277740	     -0.03353180	      1.26128355	     -0.09034422	     -4.09774540	      0.14411697	      0.37380520	      0.93236116	      9.92608416	      3.87421686	      0.00000000	     -5.18500399	     -0.35883782	      0.54873572	      1.02940895	      6.67931455	      4.00026583	      0.00000000	     -5.17998856	      1.30492775	     -1.84932577	      6.48751078	     -4.43771788	     23.29342496	     17.43774607	     70.17506481	      3.66173889	     -5.81058648	     21.78660307	     21.20655439	     67.10567044
      0.06666670	     -0.45020631	      0.12510924	     -9.76434646	     -0.03381108	      1.26085125	     -0.09016044	     -4.25933673	      0.29699591	      0.92653923	      0.92955493	      9.88848458	      2.63368859	      0.00000000	     -5.54008560	     -0.45147528	      1.18267936	      0.85000110	      6.54494554	      3.23404965	      0.00000000	     -5.49062169	      1.17815597	     -1.27725174	      6.13912937	     -4.10202151	     20.87365183	     17.53326284	     72.13815860	      4.75120815	     -6.39873670	     26.61515724	     20.62355166	     70.85838478
      0.08333330	     -0.43759264	      0.19049744	     -9.80621822	     -0.03660643	      1.26675428	     -0.08974474	     -4.21807426	      0.27421742	      0.66523360	      0.97843349	      9.47980401	      2.67818584	      0.00000000	     -5.41557408	     -0.39157815	      1.25490487	      1.02715190	      6.51380362	      3.32323173	      0.00000000	     -5.78042570	      1.08970064	     -1.27127946	      6.31895623	     -3.96142146	     20.85695384	     17.63100451	     72.23603573	      4.92350357	     -6.35665480	     26.66023156	     20.53838537	     70.95064350
      0.10000000	     -0.39407917	      0.21686731	     -9.77499826	     -0.03720804	      1.26100227	     -0.09019499	     -4.11898490	      0.28919657	      0.67148537	      0.92379729	      9.48522433	      2.68056543	      0.00000000	     -5.49677659	     -0.39179041	      1.25490755	      1.07169364	      6.51801470	      3.32153850	      0.00000000	     -5.78470458	      1.09301383	     -1.26875774	      6.32452038	     -3.95545640	     20.85776739	     17.63321459	     72.23763544	      4.92741867	     -6.35359423	     26.66199882	     20.53903321	     70.95236059
      0.11666670	     -0.13742658	      0.32940226	     -9.83003930	     -0.03938728	      1.26208489	     -0.08998930	     -4.33220501	      0.11681638	      0.81221208	      0.90921901	      9.46455570	      2.21985676	      0.00000000	     -5.50961837	     -0.21403494	      1.89695695	      1.45412098	      6.80134501	      2.50301446	      0.00000000	     -6.30050927	      0.96012952	     -0.98712421	      6.86972120	     -3.98535017	     22.13479809	     17.24372313	     75.21589952	      5.79827967	     -6.55160520	     30.25928329	     20.01984467	     74.41042913
      0.13333330	     -0.09932271	      0.35460521	     -9.81718135	     -0.03827925	      1.26110289	     -0.08873115	     -4.30728165	      0.15703319	      0.81373877	      0.89822819	      9.46281046	      2.22106724	      0.00000000	     -5.51008537	     -0.19646353	      1.89779804	      1.45886307	      6.80599616	      2.50269917	      0.00000000	     -6.29721808	      0.96162648	     -0.98557250	      6.87865570	     -3.98073843	     22.13511029	     17.24704606	     75.21742838	      5.80700327	     -6.54698816	     30.25928956	     20.02336987	     74.41182600
      0.15000000	     -0.05872067	      0.41120010	     -9.70886943	     -0.03753463	      1.26137045	     -0.08955705	     -4.31316391	      0.10769635	      0.86666459	      0.84723797	      9.42088200	      2.22716323	      0.00000000	     -5.44072181	     -0.14986925	      2.00475209	      1.59157510	      6.95413454	      2.49554629	      0.00000000	     -6.26079833	      0.84029173	     -0.94550552	      7.01206784	     -3.83925685	     22.16871445	     17.30631156	     75.27083128	      5.93078037	     -6.46709869	     30.29162351	     20.09397984	     74.46393353
      0.16666670	     -0.05018827	      0.40890402	     -9.70511267	     -0.03701260	      1.25931763	     -0.09031309	     -4.33948537	      0.09071293	      0.86872153	      0.86458797	      9.41852288	      2.22641302	      0.00000000	     -5.41529556	     -0.16322235	      2.00478373	      1.58107559	      6.96111557	      2.49255945	      0.00000000	     -6.26374151	      0.84040025	     -0.94084186	      7.01312744	     -3.83969930	     22.16990317	     17.30616678	     75.27261751	      5.92449920	     -6.46972518	     30.29335042	     20.09273353	     74.46576979
      0.18333330	     -0.02392751	      0.44591145	     -9.59556785	     -0.03774517	      1.26112937	     -0.08943306	     -4.40707261	      0.06203004	      0.84947220	      0.99962677	      9.37105501	      2.18955882	      0.00000000	     -5.44263111	     -0.14689937	      2.04714122	      1.68426594	      7.01154331	      2.47682886	      0.00000000	     -6.23493272	      0.85729711	     -0.88251083	      7.02060406	     -3.85456453	     22.18756238	     17.30691266	     75.29525298	      5.81927878	     -6.47175055	     30.32459946	     20.08333198	     74.49030216
      0.20000000	     -0.02508050	      0.43026344	     -9.71687475	     -0.03822885	      1.26152079	     -0.08933980	     -4.42704655	      0.06679587	      0.76598257	      1.00790836	      9.35125692	      2.11179435	      0.00000000	     -5.44347763	     -0.16239412	      2.14071376	      1.72369321	      7.07100011	      2.48354580	      0.00000000	     -6.22486071	      0.86708465	     -0.86922504	      7.03956013	     -3.86435671	     22.21122117	     17.31058491	     75.32117067	      5.78703927	     -6.47573244	     30.36006801	     20.09195138	     74.51846458
